# xmcd
#
# Track frame offsets:
#	150
#	18404
#	38178
#	55912
#	79168
#	101342
#	119444
#	131044
#	154271
#	171998
#	187194
#	223544
#	246816
#	258585
#	265701
#
# Disc length: 3870 seconds
#
# Revision: 0
# Processed by: cddbd v1.4PL0 Copyright (c) Steve Scherf et al.
# Submitted via: EasyCDDAExtractor 5.0.4.1
#
DISCID=d60f1c0f
DTITLE=НОМ - НОМ 15
DYEAR=2002
DGENRE=Other
TTITLE0=Насекомые
TTITLE1=Случай в пионэрской комнате
TTITLE2=Нина
TTITLE3=7%
TTITLE4=Интеркосмос
TTITLE5=Суперхозяин
TTITLE6=Свинух
TTITLE7=Учительница заболела
TTITLE8=Samba Hopkins
TTITLE9=Город
TTITLE10=Черные Лапки
TTITLE11=Сенька-Мосгаз
TTITLE12=Лягва
TTITLE13=Королева-гади
TTITLE14=Цыган и микросхемы
EXTD=
EXTT0=
EXTT1=
EXTT2=
EXTT3=
EXTT4=
EXTT5=
EXTT6=
EXTT7=
EXTT8=
EXTT9=
EXTT10=
EXTT11=
EXTT12=
EXTT13=
EXTT14=
PLAYORDER=
